<svg xmlns="http://www.w3.org/2000/svg" width="23.284" height="23.284" viewBox="0 0 23.284 23.284"><defs><style>.a{fill:#fbbd00;}.b{fill:#0f9d58;}.c{fill:#31aa52;}.d{fill:#3c79e6;}.e{fill:#cf2d48;}.f{fill:#eb4132;}</style></defs><path class="a" d="M5.457,107.3a6.147,6.147,0,0,1,.87-3.16v-3.925H2.4a11.648,11.648,0,0,0,0,14.169H6.327v-3.925A6.147,6.147,0,0,1,5.457,107.3Z" transform="translate(0 -95.658)"/><path class="b" d="M198.729,373.827,196,376.555l2.729,2.729a11.554,11.554,0,0,0,7.085-2.4v-3.921h-3.921A6.184,6.184,0,0,1,198.729,373.827Z" transform="translate(-187.087 -356)"/><path class="c" d="M56.748,325.477,52.823,329.4a11.828,11.828,0,0,0,1.008,1.148,11.566,11.566,0,0,0,8.232,3.41V328.5A6.187,6.187,0,0,1,56.748,325.477Z" transform="translate(-50.421 -310.675)"/><path class="d" d="M267.642,199.992a11.746,11.746,0,0,0-.191-2.109l-.1-.559H256v5.457h5.523a6.157,6.157,0,0,1-2.36,2.53l3.921,3.921a11.826,11.826,0,0,0,1.148-1.008A11.566,11.566,0,0,0,267.642,199.992Z" transform="translate(-244.358 -188.35)"/><path class="e" d="M203.1,7.269l.482.482,3.859-3.859-.482-.482A11.566,11.566,0,0,0,198.729,0L196,2.729l2.729,2.729A6.145,6.145,0,0,1,203.1,7.269Z" transform="translate(-187.087)"/><path class="f" d="M62.062,5.457V0A11.566,11.566,0,0,0,53.83,3.41a11.817,11.817,0,0,0-1.008,1.148l3.925,3.925A6.188,6.188,0,0,1,62.062,5.457Z" transform="translate(-50.42 0)"/></svg>